<?xml version="1.0" encoding="utf-8"?>
<!-- Generator: Adobe Illustrator 24.0.1, SVG Export Plug-In . SVG Version: 6.00 Build 0)  -->
<svg version="1.1" id="Layer_1" xmlns="http://www.w3.org/2000/svg" xmlns:xlink="http://www.w3.org/1999/xlink" x="0px" y="0px"
	 viewBox="0 0 195 504" style="enable-background:new 0 0 195 504;" xml:space="preserve">
<style type="text/css">
	.st0{fill:none;stroke:#DDDDDD;}
</style>
<g>
	<path class="st0" d="M-162.4,17.3c-75.7-23.7-153.5-63.2-233.2,9c-79.7,72.2-129.8,135.4-97.4,217.2
		c32.4,81.8,164.4,30.9,202.8,104c38.4,73.1-45.9,139.5-9.6,204.6c36.4,65.1,64.3,106.8,181.1,65.4
		c116.8-41.4,106-146.7,194.9-208.3s184.9-154,53-318.6S-86.7,41-162.4,17.3L-162.4,17.3z"/>
	<path class="st0" d="M-152.9,55.2C-214.5,36-277.8,3.9-342.6,62.5c-64.8,58.6-105.6,110-79.3,176.4c26.3,66.4,133.8,25.1,165,84.4
		c31.2,59.4-37.4,113.3-7.8,166.1c29.6,52.8,52.3,86.7,147.3,53.1s86.3-119.1,158.5-169.2c72.3-50.1,150.4-125,43.2-258.7
		S-91.3,74.5-152.9,55.2z"/>
	<path class="st0" d="M-135.2,80.4c-50-15.7-101.3-41.9-153.9,5.9c-52.6,47.8-85.7,89.7-64.3,143.9s108.5,20.4,133.8,68.9
		c25.3,48.4-30.3,92.4-6.3,135.5c24,43.1,42.4,70.8,119.5,43.3c77.1-27.4,70-97.2,128.6-138c58.6-40.9,122.1-102,35-211.1
		C-29.8,19.8-85.2,96.1-135.2,80.4L-135.2,80.4z"/>
	<path class="st0" d="M-116.7,111.2c-40.3-12.6-81.7-33.6-124.1,4.8s-69.1,72-51.9,115.5c17.2,43.5,87.5,16.4,107.9,55.3
		c20.4,38.9-24.5,74.1-5.1,108.7s34.2,56.8,96.4,34.8c62.2-22,56.4-78,103.7-110.7s98.4-81.8,28.2-169.4
		C-31.7,62.5-76.4,123.8-116.7,111.2L-116.7,111.2z"/>
	<path class="st0" d="M-111.9,131c-32.9-10.3-66.7-27.5-101.4,3.9c-34.6,31.4-56.4,58.8-42.4,94.4c14.1,35.5,71.5,13.4,88.2,45.2
		c16.7,31.8-20,60.6-4.2,88.9c15.8,28.3,28,46.4,78.7,28.4c50.8-18,46.1-63.7,84.7-90.5c38.6-26.8,80.4-66.9,23.1-138.5
		C-42.5,91.3-79,141.3-111.9,131L-111.9,131z"/>
	<path class="st0" d="M-102.8,145.4c-26.7-8.4-54.2-22.3-82.3,3.2s-45.8,47.8-34.4,76.6c11.4,28.9,58,10.9,71.6,36.7
		c13.5,25.8-16.2,49.2-3.4,72.2c12.8,23,22.7,37.7,63.9,23.1s37.4-51.8,68.8-73.5c31.4-21.8,65.3-54.3,18.7-112.4
		C-46.4,113.1-76.1,153.8-102.8,145.4L-102.8,145.4z"/>
</g>
</svg>
